<svg width="78" height="74" viewBox="0 0 78 74" fill="none" xmlns="http://www.w3.org/2000/svg">
<mask id="path-1-inside-1_198_1725" fill="white">
<path d="M67.3034 23.0016C78.3591 21.927 81.1096 37.9486 70.3285 40.6228C64.1853 42.1465 61.5137 49.3848 65.1938 54.5342C71.6524 63.5714 59.1524 73.9642 51.446 65.9646C47.0548 61.4063 39.4505 62.7118 36.8309 68.4735C32.2338 78.5854 16.9834 72.9566 20.0581 62.2827C21.81 56.2008 16.8773 50.2679 10.5777 50.8803C-0.478025 51.9549 -3.22849 35.9333 7.55266 33.2591C13.6958 31.7354 16.3674 24.4971 12.6873 19.3477C6.22878 10.3104 18.7287 -0.0823725 26.4351 7.91732C30.8263 12.4756 38.4307 11.1701 41.0502 5.40833C45.6474 -4.70354 60.8978 0.925304 57.8231 11.5991C56.0711 17.6811 61.0038 23.6139 67.3034 23.0016Z"/>
</mask>
<path d="M67.3034 23.0016C78.3591 21.927 81.1096 37.9486 70.3285 40.6228C64.1853 42.1465 61.5137 49.3848 65.1938 54.5342C71.6524 63.5714 59.1524 73.9642 51.446 65.9646C47.0548 61.4063 39.4505 62.7118 36.8309 68.4735C32.2338 78.5854 16.9834 72.9566 20.0581 62.2827C21.81 56.2008 16.8773 50.2679 10.5777 50.8803C-0.478025 51.9549 -3.22849 35.9333 7.55266 33.2591C13.6958 31.7354 16.3674 24.4971 12.6873 19.3477C6.22878 10.3104 18.7287 -0.0823725 26.4351 7.91732C30.8263 12.4756 38.4307 11.1701 41.0502 5.40833C45.6474 -4.70354 60.8978 0.925304 57.8231 11.5991C56.0711 17.6811 61.0038 23.6139 67.3034 23.0016Z" fill="#FFF8F3"/>
<g clip-path="url(#paint0_diamond_198_1725_clip_path)" data-figma-skip-parse="true" mask="url(#path-1-inside-1_198_1725)"><g transform="matrix(0.0257786 0.150162 -0.355993 0.061114 38.9406 36.9409)"><rect x="0" y="0" width="1232.61" height="519.93" fill="url(#paint0_diamond_198_1725)" opacity="1" shape-rendering="crispEdges"/><rect x="0" y="0" width="1232.61" height="519.93" transform="scale(1 -1)" fill="url(#paint0_diamond_198_1725)" opacity="1" shape-rendering="crispEdges"/><rect x="0" y="0" width="1232.61" height="519.93" transform="scale(-1 1)" fill="url(#paint0_diamond_198_1725)" opacity="1" shape-rendering="crispEdges"/><rect x="0" y="0" width="1232.61" height="519.93" transform="scale(-1)" fill="url(#paint0_diamond_198_1725)" opacity="1" shape-rendering="crispEdges"/></g></g><path d="M23.7678 1.78912C15.0888 31.9183 39.5249 61.3088 70.7321 58.2754L63.8747 -12.2722C82.4828 -14.0809 97.0534 3.44388 91.8783 21.4091L23.7678 1.78912ZM73.3125 20.0758C70.6249 25.9873 65.2755 31.3609 58.0085 33.9676C51.3793 36.3455 45.0014 35.7872 40.0421 33.9567C35.0827 32.1262 29.8715 28.4071 26.3768 22.2924C22.5459 15.5896 21.9703 8.02912 23.7678 1.78912L91.8783 21.4091C107.11 -31.4678 31.5615 -59.3516 8.78784 -9.25918L73.3125 20.0758ZM0.91184 32.505C22.6649 55.0859 60.3359 48.6188 73.3125 20.0758L8.78784 -9.25918C16.5254 -26.2786 38.9877 -30.1347 51.9585 -16.6704L0.91184 32.505ZM41.5209 -1.25858C45.2966 4.02465 47.2756 11.3442 45.8995 18.9409C44.6442 25.871 40.9718 31.1152 36.9069 34.4949C32.8419 37.8746 27.0154 40.528 19.9727 40.4972C12.2524 40.4635 5.41709 37.1817 0.91184 32.505L51.9585 -16.6704C13.7822 -56.2994 -48.1412 -4.8155 -16.1463 39.9539L41.5209 -1.25858ZM16.0846 67.6568C46.5167 60.1085 59.7516 24.251 41.5209 -1.25858L-16.1463 39.9539C-27.0168 24.7432 -19.1251 3.3623 -0.979237 -1.13856L16.0846 67.6568ZM7.14899 15.6065C13.6123 14.9783 20.9406 16.9242 26.8316 21.9143C32.2055 26.4665 34.9109 32.269 35.8054 37.4792C36.6998 42.6893 36.0845 49.0619 32.5365 55.1458C28.6471 61.8148 22.3873 66.0935 16.0846 67.6568L-0.979237 -1.13856C-54.3875 12.1087 -40.7621 91.4777 14.0064 86.154L7.14899 15.6065ZM54.1133 72.0928C62.7923 41.9636 38.3562 12.5731 7.14899 15.6065L14.0064 86.154C-4.60162 87.9628 -19.1722 70.438 -13.9971 52.4728L54.1133 72.0928ZM4.56863 53.806C7.25619 47.8945 12.6056 42.521 19.8726 39.9143C26.5019 37.5364 32.8797 38.0947 37.8391 39.9252C42.7984 41.7556 48.0096 45.4748 51.5043 51.5894C55.3352 58.2923 55.9108 65.8528 54.1133 72.0928L-13.9971 52.4728C-29.229 105.35 46.3197 133.233 69.0933 83.1411L4.56863 53.806ZM76.9693 41.3769C55.2162 18.796 17.5452 25.263 4.56863 53.806L69.0933 83.1411C61.3557 100.16 38.8935 104.017 25.9227 90.5522L76.9693 41.3769ZM36.3602 75.1404C32.5845 69.8572 30.6056 62.5377 31.9816 54.941C33.2369 48.0109 36.9094 42.7666 40.9743 39.3869C45.0392 36.0073 50.8657 33.3538 57.9085 33.3846C65.6287 33.4184 72.464 36.7002 76.9693 41.3769L25.9227 90.5522C64.099 130.181 126.022 78.6973 94.0274 33.928L36.3602 75.1404ZM61.7966 6.22508C31.3644 13.7734 18.1295 49.6309 36.3602 75.1404L94.0274 33.928C104.898 49.1387 97.0063 70.5196 78.8604 75.0204L61.7966 6.22508ZM78.8604 75.0204C132.269 61.7732 118.643 -17.5958 63.8747 -12.2722L70.7321 58.2754C64.2689 58.9036 56.9405 56.9576 51.0496 51.9676C45.6756 47.4154 42.9702 41.6129 42.0757 36.4027C41.1813 31.1926 41.7966 24.8199 45.3447 18.7361C49.234 12.0671 55.4938 7.78839 61.7966 6.22508L78.8604 75.0204Z" data-figma-gradient-fill="{&#34;type&#34;:&#34;GRADIENT_DIAMOND&#34;,&#34;stops&#34;:[{&#34;color&#34;:{&#34;r&#34;:0.90588235855102539,&#34;g&#34;:0.98431372642517090,&#34;b&#34;:0.23921568691730499,&#34;a&#34;:1.0},&#34;position&#34;:0.0},{&#34;color&#34;:{&#34;r&#34;:0.033333335071802139,&#34;g&#34;:1.0,&#34;b&#34;:0.0,&#34;a&#34;:1.0},&#34;position&#34;:0.26923078298568726},{&#34;color&#34;:{&#34;r&#34;:0.98823529481887817,&#34;g&#34;:0.35686275362968445,&#34;b&#34;:0.98431372642517090,&#34;a&#34;:1.0},&#34;position&#34;:0.53846156597137451}],&#34;stopsVar&#34;:[{&#34;color&#34;:{&#34;r&#34;:0.90588235855102539,&#34;g&#34;:0.98431372642517090,&#34;b&#34;:0.23921568691730499,&#34;a&#34;:1.0},&#34;position&#34;:0.0},{&#34;color&#34;:{&#34;r&#34;:0.033333335071802139,&#34;g&#34;:1.0,&#34;b&#34;:0.0,&#34;a&#34;:1.0},&#34;position&#34;:0.26923078298568726},{&#34;color&#34;:{&#34;r&#34;:0.98823529481887817,&#34;g&#34;:0.35686275362968445,&#34;b&#34;:0.98431372642517090,&#34;a&#34;:1.0},&#34;position&#34;:0.53846156597137451}],&#34;transform&#34;:{&#34;m00&#34;:51.557281494140625,&#34;m01&#34;:-711.98602294921875,&#34;m02&#34;:369.15493774414062,&#34;m10&#34;:300.32458496093750,&#34;m11&#34;:122.22796630859375,&#34;m12&#34;:-174.33534240722656},&#34;opacity&#34;:1.0,&#34;blendMode&#34;:&#34;NORMAL&#34;,&#34;visible&#34;:true}" mask="url(#path-1-inside-1_198_1725)"/>
<defs>
<clipPath id="paint0_diamond_198_1725_clip_path"><path d="M23.7678 1.78912C15.0888 31.9183 39.5249 61.3088 70.7321 58.2754L63.8747 -12.2722C82.4828 -14.0809 97.0534 3.44388 91.8783 21.4091L23.7678 1.78912ZM73.3125 20.0758C70.6249 25.9873 65.2755 31.3609 58.0085 33.9676C51.3793 36.3455 45.0014 35.7872 40.0421 33.9567C35.0827 32.1262 29.8715 28.4071 26.3768 22.2924C22.5459 15.5896 21.9703 8.02912 23.7678 1.78912L91.8783 21.4091C107.11 -31.4678 31.5615 -59.3516 8.78784 -9.25918L73.3125 20.0758ZM0.91184 32.505C22.6649 55.0859 60.3359 48.6188 73.3125 20.0758L8.78784 -9.25918C16.5254 -26.2786 38.9877 -30.1347 51.9585 -16.6704L0.91184 32.505ZM41.5209 -1.25858C45.2966 4.02465 47.2756 11.3442 45.8995 18.9409C44.6442 25.871 40.9718 31.1152 36.9069 34.4949C32.8419 37.8746 27.0154 40.528 19.9727 40.4972C12.2524 40.4635 5.41709 37.1817 0.91184 32.505L51.9585 -16.6704C13.7822 -56.2994 -48.1412 -4.8155 -16.1463 39.9539L41.5209 -1.25858ZM16.0846 67.6568C46.5167 60.1085 59.7516 24.251 41.5209 -1.25858L-16.1463 39.9539C-27.0168 24.7432 -19.1251 3.3623 -0.979237 -1.13856L16.0846 67.6568ZM7.14899 15.6065C13.6123 14.9783 20.9406 16.9242 26.8316 21.9143C32.2055 26.4665 34.9109 32.269 35.8054 37.4792C36.6998 42.6893 36.0845 49.0619 32.5365 55.1458C28.6471 61.8148 22.3873 66.0935 16.0846 67.6568L-0.979237 -1.13856C-54.3875 12.1087 -40.7621 91.4777 14.0064 86.154L7.14899 15.6065ZM54.1133 72.0928C62.7923 41.9636 38.3562 12.5731 7.14899 15.6065L14.0064 86.154C-4.60162 87.9628 -19.1722 70.438 -13.9971 52.4728L54.1133 72.0928ZM4.56863 53.806C7.25619 47.8945 12.6056 42.521 19.8726 39.9143C26.5019 37.5364 32.8797 38.0947 37.8391 39.9252C42.7984 41.7556 48.0096 45.4748 51.5043 51.5894C55.3352 58.2923 55.9108 65.8528 54.1133 72.0928L-13.9971 52.4728C-29.229 105.35 46.3197 133.233 69.0933 83.1411L4.56863 53.806ZM76.9693 41.3769C55.2162 18.796 17.5452 25.263 4.56863 53.806L69.0933 83.1411C61.3557 100.16 38.8935 104.017 25.9227 90.5522L76.9693 41.3769ZM36.3602 75.1404C32.5845 69.8572 30.6056 62.5377 31.9816 54.941C33.2369 48.0109 36.9094 42.7666 40.9743 39.3869C45.0392 36.0073 50.8657 33.3538 57.9085 33.3846C65.6287 33.4184 72.464 36.7002 76.9693 41.3769L25.9227 90.5522C64.099 130.181 126.022 78.6973 94.0274 33.928L36.3602 75.1404ZM61.7966 6.22508C31.3644 13.7734 18.1295 49.6309 36.3602 75.1404L94.0274 33.928C104.898 49.1387 97.0063 70.5196 78.8604 75.0204L61.7966 6.22508ZM78.8604 75.0204C132.269 61.7732 118.643 -17.5958 63.8747 -12.2722L70.7321 58.2754C64.2689 58.9036 56.9405 56.9576 51.0496 51.9676C45.6756 47.4154 42.9702 41.6129 42.0757 36.4027C41.1813 31.1926 41.7966 24.8199 45.3447 18.7361C49.234 12.0671 55.4938 7.78839 61.7966 6.22508L78.8604 75.0204Z" mask="url(#path-1-inside-1_198_1725)"/></clipPath><linearGradient id="paint0_diamond_198_1725" x1="0" y1="0" x2="500" y2="500" gradientUnits="userSpaceOnUse">
<stop stop-color="#E7FB3D"/>
<stop offset="0.269231" stop-color="#09FF00"/>
<stop offset="0.538462" stop-color="#FC5BFB"/>
</linearGradient>
</defs>
</svg>
