<svg width="93" height="98" viewBox="0 0 93 98" fill="none" xmlns="http://www.w3.org/2000/svg">
<mask id="path-1-inside-1_198_259" fill="white">
<path d="M69.8853 16.1747C81.5478 8.32281 94.2549 24.5055 83.8611 33.973C77.9386 39.3675 79.3214 49.0349 86.5187 52.5529C99.1499 58.7269 91.4888 77.823 78.0928 73.5554C70.4598 71.1237 62.779 77.1549 63.331 85.1469C64.2997 99.1728 43.9315 102.086 40.9294 88.3512C39.2187 80.5249 30.1551 76.8887 23.5098 81.3627C11.8474 89.2147 -0.85979 73.032 9.53408 63.5645C15.4565 58.1699 14.0738 48.5026 6.87647 44.9846C-5.75471 38.8106 1.90629 19.7145 15.3023 23.9821C22.9354 26.4138 30.6162 20.3826 30.0642 12.3906C29.0955 -1.63538 49.4637 -4.54877 52.4658 9.18632C54.1764 17.0126 63.24 20.6488 69.8853 16.1747Z"/>
</mask>
<g clip-path="url(#paint0_diamond_198_259_clip_path)" data-figma-skip-parse="true" mask="url(#path-1-inside-1_198_259)"><g transform="matrix(0.119097 0.151671 -0.359571 0.282347 46.6976 48.7687)"><rect x="0" y="0" width="1212.61" height="511.493" fill="url(#paint0_diamond_198_259)" opacity="1" shape-rendering="crispEdges"/><rect x="0" y="0" width="1212.61" height="511.493" transform="scale(1 -1)" fill="url(#paint0_diamond_198_259)" opacity="1" shape-rendering="crispEdges"/><rect x="0" y="0" width="1212.61" height="511.493" transform="scale(-1 1)" fill="url(#paint0_diamond_198_259)" opacity="1" shape-rendering="crispEdges"/><rect x="0" y="0" width="1212.61" height="511.493" transform="scale(-1)" fill="url(#paint0_diamond_198_259)" opacity="1" shape-rendering="crispEdges"/></g></g><path d="M12.4114 17.9411C20.304 54.0508 62.1225 70.8276 92.7831 50.1849L46.9875 -17.8354C64.3575 -29.5301 88.0488 -20.0256 92.5202 0.431506L12.4114 17.9411ZM70.9668 9.56555C71.4636 16.7587 69.0701 24.9288 63.2656 31.4054C57.9841 37.2982 51.4056 40.1319 45.5813 40.965C39.7571 41.798 32.648 40.9222 25.9263 36.7463C18.5389 32.1567 13.951 24.9851 12.4114 17.9411L92.5202 0.431506C78.6687 -62.9406 -15.308 -49.4988 -10.8384 15.2156L70.9668 9.56555ZM2.85699 63.0476C38.0751 74.2672 73.5135 46.4399 70.9668 9.56555L-10.8384 15.2156C-12.2812 -5.67472 7.79561 -21.4396 27.7476 -15.0834L2.85699 63.0476ZM24.8812 8.14942C31.3591 11.3157 37.2379 17.4736 39.9445 25.7387C42.4071 33.259 41.5719 40.373 39.3812 45.8335C37.1905 51.294 32.8775 57.0128 25.9002 60.7459C18.2317 64.8488 9.72708 65.2363 2.85699 63.0476L27.7476 -15.0834C-34.0605 -34.774 -69.4068 53.3337 -11.1283 81.8197L24.8812 8.14942ZM37.1432 93.8752C64.4687 68.9852 58.0888 24.381 24.8812 8.14942L-11.1283 81.8197C-29.9413 72.6241 -33.5556 47.3546 -18.075 33.2538L37.1432 93.8752ZM0.612033 47.3526C6.59308 43.3258 14.8653 41.3135 23.3764 43.1021C31.1206 44.7295 36.8638 49.0099 40.4974 53.6373C44.131 58.2647 46.9271 64.8593 46.6714 72.7684C46.3904 81.4609 42.4736 89.0199 37.1432 93.8752L-18.075 33.2538C-66.0313 76.9357 -7.40155 151.601 46.4077 115.373L0.612033 47.3526ZM80.9837 79.5963C73.0911 43.4867 31.2727 26.7098 0.612033 47.3526L46.4077 115.373C29.0376 127.068 5.34634 117.563 0.874958 97.106L80.9837 79.5963ZM22.4284 87.9719C21.9316 80.7788 24.325 72.6086 30.1296 66.1321C35.411 60.2392 41.9895 57.4056 47.8138 56.5725C53.638 55.7394 60.7471 56.6152 67.4688 60.7912C74.8563 65.3808 79.4441 72.5523 80.9837 79.5963L0.874958 97.106C14.7265 160.478 108.703 147.036 104.234 82.3219L22.4284 87.9719ZM90.5381 34.4898C55.32 23.2702 19.8816 51.0976 22.4284 87.9719L104.234 82.3219C105.676 103.212 85.5996 118.977 65.6475 112.621L90.5381 34.4898ZM68.5139 89.388C62.0361 86.2217 56.1572 80.0639 53.4507 71.7987C50.988 64.2784 51.8233 57.1644 54.0139 51.7039C56.2046 46.2435 60.5176 40.5247 67.495 36.7915C75.1634 32.6886 83.6681 32.3012 90.5381 34.4898L65.6475 112.621C127.455 132.311 162.802 44.2039 104.523 15.7177L68.5139 89.388ZM56.252 3.66224C28.9264 28.5522 35.3064 73.1565 68.5139 89.388L104.523 15.7177C123.336 24.9133 126.951 50.1828 111.47 64.2836L56.252 3.66224ZM111.47 64.2836C159.426 20.6017 100.797 -54.0632 46.9875 -17.8354L92.7831 50.1849C86.8021 54.2117 78.5298 56.224 70.0187 54.4354C62.2746 52.8079 56.5313 48.5276 52.8977 43.9002C49.2641 39.2728 46.468 32.6782 46.7237 24.769C47.0047 16.0766 50.9215 8.5176 56.252 3.66224L111.47 64.2836Z" data-figma-gradient-fill="{&#34;type&#34;:&#34;GRADIENT_DIAMOND&#34;,&#34;stops&#34;:[{&#34;color&#34;:{&#34;r&#34;:0.59607845544815063,&#34;g&#34;:0.29019609093666077,&#34;b&#34;:0.98431372642517090,&#34;a&#34;:1.0},&#34;position&#34;:0.0},{&#34;color&#34;:{&#34;r&#34;:0.98823529481887817,&#34;g&#34;:0.35686275362968445,&#34;b&#34;:0.98431372642517090,&#34;a&#34;:1.0},&#34;position&#34;:0.21153846383094788}],&#34;stopsVar&#34;:[{&#34;color&#34;:{&#34;r&#34;:0.59607845544815063,&#34;g&#34;:0.29019609093666077,&#34;b&#34;:0.98431372642517090,&#34;a&#34;:1.0},&#34;position&#34;:0.0},{&#34;color&#34;:{&#34;r&#34;:0.98823529481887817,&#34;g&#34;:0.35686275362968445,&#34;b&#34;:0.98431372642517090,&#34;a&#34;:1.0},&#34;position&#34;:0.21153846383094788}],&#34;transform&#34;:{&#34;m00&#34;:238.194824218750,&#34;m01&#34;:-719.14099121093750,&#34;m02&#34;:287.1706542968750,&#34;m10&#34;:303.34265136718750,&#34;m11&#34;:564.6936035156250,&#34;m12&#34;:-385.24942016601562},&#34;opacity&#34;:1.0,&#34;blendMode&#34;:&#34;NORMAL&#34;,&#34;visible&#34;:true}" mask="url(#path-1-inside-1_198_259)"/>
<defs>
<clipPath id="paint0_diamond_198_259_clip_path"><path d="M12.4114 17.9411C20.304 54.0508 62.1225 70.8276 92.7831 50.1849L46.9875 -17.8354C64.3575 -29.5301 88.0488 -20.0256 92.5202 0.431506L12.4114 17.9411ZM70.9668 9.56555C71.4636 16.7587 69.0701 24.9288 63.2656 31.4054C57.9841 37.2982 51.4056 40.1319 45.5813 40.965C39.7571 41.798 32.648 40.9222 25.9263 36.7463C18.5389 32.1567 13.951 24.9851 12.4114 17.9411L92.5202 0.431506C78.6687 -62.9406 -15.308 -49.4988 -10.8384 15.2156L70.9668 9.56555ZM2.85699 63.0476C38.0751 74.2672 73.5135 46.4399 70.9668 9.56555L-10.8384 15.2156C-12.2812 -5.67472 7.79561 -21.4396 27.7476 -15.0834L2.85699 63.0476ZM24.8812 8.14942C31.3591 11.3157 37.2379 17.4736 39.9445 25.7387C42.4071 33.259 41.5719 40.373 39.3812 45.8335C37.1905 51.294 32.8775 57.0128 25.9002 60.7459C18.2317 64.8488 9.72708 65.2363 2.85699 63.0476L27.7476 -15.0834C-34.0605 -34.774 -69.4068 53.3337 -11.1283 81.8197L24.8812 8.14942ZM37.1432 93.8752C64.4687 68.9852 58.0888 24.381 24.8812 8.14942L-11.1283 81.8197C-29.9413 72.6241 -33.5556 47.3546 -18.075 33.2538L37.1432 93.8752ZM0.612033 47.3526C6.59308 43.3258 14.8653 41.3135 23.3764 43.1021C31.1206 44.7295 36.8638 49.0099 40.4974 53.6373C44.131 58.2647 46.9271 64.8593 46.6714 72.7684C46.3904 81.4609 42.4736 89.0199 37.1432 93.8752L-18.075 33.2538C-66.0313 76.9357 -7.40155 151.601 46.4077 115.373L0.612033 47.3526ZM80.9837 79.5963C73.0911 43.4867 31.2727 26.7098 0.612033 47.3526L46.4077 115.373C29.0376 127.068 5.34634 117.563 0.874958 97.106L80.9837 79.5963ZM22.4284 87.9719C21.9316 80.7788 24.325 72.6086 30.1296 66.1321C35.411 60.2392 41.9895 57.4056 47.8138 56.5725C53.638 55.7394 60.7471 56.6152 67.4688 60.7912C74.8563 65.3808 79.4441 72.5523 80.9837 79.5963L0.874958 97.106C14.7265 160.478 108.703 147.036 104.234 82.3219L22.4284 87.9719ZM90.5381 34.4898C55.32 23.2702 19.8816 51.0976 22.4284 87.9719L104.234 82.3219C105.676 103.212 85.5996 118.977 65.6475 112.621L90.5381 34.4898ZM68.5139 89.388C62.0361 86.2217 56.1572 80.0639 53.4507 71.7987C50.988 64.2784 51.8233 57.1644 54.0139 51.7039C56.2046 46.2435 60.5176 40.5247 67.495 36.7915C75.1634 32.6886 83.6681 32.3012 90.5381 34.4898L65.6475 112.621C127.455 132.311 162.802 44.2039 104.523 15.7177L68.5139 89.388ZM56.252 3.66224C28.9264 28.5522 35.3064 73.1565 68.5139 89.388L104.523 15.7177C123.336 24.9133 126.951 50.1828 111.47 64.2836L56.252 3.66224ZM111.47 64.2836C159.426 20.6017 100.797 -54.0632 46.9875 -17.8354L92.7831 50.1849C86.8021 54.2117 78.5298 56.224 70.0187 54.4354C62.2746 52.8079 56.5313 48.5276 52.8977 43.9002C49.2641 39.2728 46.468 32.6782 46.7237 24.769C47.0047 16.0766 50.9215 8.5176 56.252 3.66224L111.47 64.2836Z" mask="url(#path-1-inside-1_198_259)"/></clipPath><linearGradient id="paint0_diamond_198_259" x1="0" y1="0" x2="500" y2="500" gradientUnits="userSpaceOnUse">
<stop stop-color="#984AFB"/>
<stop offset="0.211538" stop-color="#FC5BFB"/>
</linearGradient>
</defs>
</svg>
